<svg width="212" height="50" viewBox="0 0 212 50" fill="none" xmlns="http://www.w3.org/2000/svg">
<path d="M58.8889 45.327H0V47.6733H58.8889V45.327Z" fill="#393939"/>
<path d="M15.0764 44.5516H5.36256V0.901085H15.0764V44.5516ZM6.53902 43.3675H13.8994V2.07081H6.53902V43.3675Z" fill="#393939"/>
<path d="M15.0764 10.7719H5.36256V5.76466H15.0764V10.7719ZM6.53902 9.60096H13.8994V6.94685H6.53902V9.60096Z" fill="#393939"/>
<path d="M15.0764 40.2756H5.36256V35.2647H15.0764V40.2756ZM6.53902 39.0947H13.8994V36.4375H6.53902V39.0947Z" fill="#393939"/>
<path d="M45.8947 44.6877L34.6158 2.51855L44.0043 0L55.2826 42.1636L45.8947 44.6877ZM36.0616 3.3562L46.7247 43.2394L53.8373 41.3328L43.1743 1.44646L36.0616 3.3562Z" fill="#393939"/>
<path d="M44.6351 39.9796L43.3376 35.139L52.7261 32.6174L54.023 37.4636L44.6351 39.9796ZM44.7828 35.9736L45.4688 38.5425L52.5759 36.634L51.8949 34.0657L44.7828 35.9736Z" fill="#393939"/>
<path d="M37.019 11.4889L35.714 6.65708L45.1094 4.12608L46.4075 8.97163L37.019 11.4889ZM37.1667 7.48663L37.8539 10.0481L44.9604 8.13832L44.2719 5.57688L37.1667 7.48663Z" fill="#393939"/>
<path d="M35.9418 44.6877L24.6623 2.51855L34.0502 0L45.3217 42.1636L35.9418 44.6877ZM26.1076 3.3562L36.77 43.2394L43.8851 41.3328L33.2072 1.44646L26.1076 3.3562Z" fill="#393939"/>
<path d="M34.6809 39.9796L33.3835 35.139L42.772 32.6236L44.0689 37.4636L34.6809 39.9796ZM34.8213 35.9736L35.5166 38.5425L42.6211 36.634L41.9352 34.0657L34.8213 35.9736Z" fill="#393939"/>
<path d="M27.0568 11.4889L25.7605 6.65708L35.1485 4.12608L36.4447 8.97163L27.0568 11.4889ZM27.2064 7.48663L27.8937 10.0481L34.9988 8.13832L34.3178 5.57688L27.2064 7.48663Z" fill="#393939"/>
<path d="M25.9803 44.6877L14.6933 2.51855L24.0819 0L35.3676 42.1636L25.9803 44.6877ZM16.1454 3.3562L26.8165 43.2394L33.9292 41.3328L23.2531 1.44646L16.1454 3.3562Z" fill="#393939"/>
<path d="M24.7263 39.9796L23.4226 35.139L32.8092 32.6174L34.1135 37.4636L24.7263 39.9796ZM24.8666 35.9736L25.5619 38.5425L32.6608 36.634L31.9799 34.0657L24.8666 35.9736Z" fill="#393939"/>
<path d="M17.104 11.4889L15.8003 6.65708L25.195 4.12608L26.4856 8.97163L17.104 11.4889ZM17.2443 7.48663L17.9315 10.0481L25.0448 8.13832L24.3581 5.57688L17.2443 7.48663Z" fill="#393939"/>
<path d="M82.8039 9.06174C83.6065 9.48494 84.2251 10.0562 84.6598 10.7757C85.0939 11.4951 85.3115 12.2962 85.3115 13.1788C85.3115 14.0615 85.109 14.8534 84.7047 15.5547C84.3003 16.256 83.694 16.8092 82.8853 17.2143C82.0765 17.6193 81.099 17.8219 79.952 17.8219H77.4535V21.685H74.5926V8.42696H79.97C81.0563 8.42696 82.0008 8.63854 82.8039 9.06174ZM81.9077 14.7023C82.2577 14.2791 82.4327 13.7713 82.4327 13.1788C82.4327 12.7919 82.3418 12.4261 82.1612 12.0815C81.9801 11.737 81.7114 11.4558 81.3553 11.2382C80.9991 11.0205 80.5735 10.9117 80.0788 10.9117H77.4535V15.3371H80.3682C81.0446 15.3371 81.5572 15.1255 81.9077 14.7023ZM94.4006 20.6875C94.1712 21.0019 93.7758 21.283 93.2149 21.5308C92.6535 21.7787 92.0411 21.9026 91.377 21.9026C90.3507 21.9026 89.4606 21.6729 88.7063 21.2134C87.952 20.754 87.3754 20.1283 86.9772 19.3363C86.579 18.5443 86.3799 17.6647 86.3799 16.6974C86.3799 15.7301 86.579 14.8504 86.9772 14.0584C87.3754 13.2665 87.952 12.6407 88.7063 12.1813C89.4606 11.7218 90.3507 11.4921 91.377 11.4921C92.0652 11.4921 92.6715 11.61 93.1964 11.8458C93.7219 12.0815 94.1229 12.3808 94.4006 12.7435V11.7097H97.0803V21.685H94.4006V20.6875ZM93.7668 14.657C93.2721 14.131 92.6081 13.868 91.7752 13.868C90.9306 13.868 90.2632 14.131 89.7747 14.657C89.2857 15.1829 89.0411 15.8631 89.0411 16.6974C89.0411 17.5075 89.2918 18.1785 89.7927 18.7106C90.2935 19.2426 90.9547 19.5086 91.7752 19.5086C92.6204 19.5086 93.2873 19.2577 93.7758 18.7559C94.2648 18.2541 94.5094 17.5679 94.5094 16.6974C94.5094 15.8631 94.262 15.1829 93.7668 14.657ZM102.44 12.7072C102.669 12.3929 103.065 12.1117 103.626 11.8639C104.187 11.616 104.8 11.4921 105.463 11.4921C106.49 11.4921 107.38 11.7218 108.134 12.1813C108.888 12.6407 109.465 13.2665 109.863 14.0584C110.262 14.8504 110.461 15.7301 110.461 16.6974C110.461 17.6647 110.262 18.5443 109.863 19.3363C109.465 20.1283 108.888 20.754 108.134 21.2134C107.38 21.6729 106.49 21.9026 105.463 21.9026C104.776 21.9026 104.169 21.7847 103.644 21.549C103.119 21.3132 102.717 21.0139 102.44 20.6512V24.8952H99.76V11.7097H102.44V12.7072ZM103.073 18.7377C103.568 19.2637 104.232 19.5267 105.065 19.5267C105.91 19.5267 106.577 19.2637 107.066 18.7377C107.555 18.2118 107.799 17.5317 107.799 16.6974C107.799 15.8872 107.548 15.2162 107.048 14.6842C106.547 14.1521 105.886 13.8862 105.065 13.8862C104.22 13.8862 103.554 14.137 103.065 14.6388C102.575 15.1406 102.331 15.8268 102.331 16.6974C102.331 17.5317 102.579 18.2118 103.073 18.7377ZM115.214 21.4492C114.387 21.1227 113.677 20.5695 113.086 19.7897C112.495 19.0098 112.199 17.9911 112.199 16.7336C112.199 15.4761 112.498 14.4605 113.095 13.6866C113.693 12.9128 114.408 12.3626 115.241 12.0362C116.074 11.7097 116.864 11.5465 117.613 11.5465C118.482 11.5465 119.309 11.7399 120.094 12.1269C120.878 12.5138 121.521 13.0821 122.022 13.8317C122.523 14.5814 122.785 15.4701 122.809 16.4979C122.809 16.8122 122.803 17.0843 122.791 17.314C122.779 17.5438 122.767 17.6888 122.755 17.7493H114.897C115.041 18.4506 115.404 18.9282 115.983 19.1821C116.562 19.436 117.106 19.563 117.613 19.563C118.265 19.563 118.783 19.4451 119.17 19.2093C119.556 18.9735 119.888 18.7045 120.166 18.4022L122.266 19.6174C121.132 21.1651 119.58 21.9389 117.613 21.9389C116.84 21.9389 116.04 21.7757 115.214 21.4492ZM115.766 14.4756C115.295 14.8444 115.03 15.2948 114.969 15.8268H119.948C119.912 15.5124 119.792 15.2102 119.587 14.9199C119.381 14.6298 119.106 14.391 118.763 14.2035C118.418 14.0161 118.029 13.9224 117.594 13.9224C116.846 13.9224 116.237 14.1068 115.766 14.4756ZM129.744 14.3124C129.225 14.4393 128.748 14.7386 128.313 15.2102C127.879 15.6817 127.662 16.3709 127.662 17.2778V21.685H124.964V11.7097H127.662V13.0337C128.108 12.4412 128.654 12.0392 129.3 11.8276C129.946 11.616 130.534 11.5163 131.065 11.5284V14.1763C130.704 14.1401 130.263 14.1854 129.744 14.3124ZM141.133 13.8317H147.452V16.3165H141.133V21.685H138.254V8.42696H148.284V10.9117H141.133V13.8317ZM157.193 20.6875C156.964 21.0019 156.568 21.283 156.007 21.5308C155.445 21.7787 154.833 21.9026 154.169 21.9026C153.143 21.9026 152.253 21.6729 151.498 21.2134C150.744 20.754 150.168 20.1283 149.769 19.3363C149.371 18.5443 149.172 17.6647 149.172 16.6974C149.172 15.7301 149.371 14.8504 149.769 14.0584C150.168 13.2665 150.744 12.6407 151.498 12.1813C152.253 11.7218 153.143 11.4921 154.169 11.4921C154.857 11.4921 155.464 11.61 155.989 11.8458C156.514 12.0815 156.915 12.3808 157.193 12.7435V11.7097H159.873V21.685H157.193V20.6875ZM156.559 14.657C156.064 14.131 155.4 13.868 154.568 13.868C153.722 13.868 153.056 14.131 152.567 14.657C152.078 15.1829 151.833 15.8631 151.833 16.6974C151.833 17.5075 152.084 18.1785 152.584 18.7106C153.086 19.2426 153.747 19.5086 154.568 19.5086C155.412 19.5086 156.079 19.2577 156.568 18.7559C157.057 18.2541 157.301 17.5679 157.301 16.6974C157.301 15.8631 157.054 15.1829 156.559 14.657ZM164.797 21.2406C163.965 20.7751 163.303 20.1434 162.815 19.3453C162.326 18.5473 162.081 17.6767 162.081 16.7336C162.081 15.7905 162.326 14.923 162.815 14.131C163.303 13.339 163.961 12.7103 164.789 12.2448C165.615 11.7793 166.518 11.5465 167.495 11.5465C168.545 11.5465 169.496 11.7974 170.347 12.2992C171.198 12.801 171.877 13.5174 172.384 14.4484L169.939 15.4097C169.65 14.9139 169.294 14.5421 168.871 14.2942C168.449 14.0463 167.99 13.9224 167.495 13.9224C166.711 13.9224 166.062 14.1884 165.548 14.7204C165.036 15.2525 164.779 15.9235 164.779 16.7336C164.779 17.5438 165.039 18.2148 165.558 18.7469C166.077 19.2788 166.728 19.5448 167.513 19.5448C168.599 19.5448 169.438 19.0612 170.03 18.0939L172.33 19.0007C171.376 20.9595 169.77 21.9389 167.513 21.9389C166.536 21.9389 165.63 21.7062 164.797 21.2406ZM177.671 18.1302C177.671 18.5534 177.743 18.907 177.888 19.1912C178.033 19.4753 178.371 19.6174 178.902 19.6174C179.143 19.6174 179.373 19.6053 179.59 19.5811V21.8663C179.156 21.9147 178.751 21.9389 178.377 21.9389C177.604 21.9389 176.98 21.8754 176.503 21.7485C176.026 21.6215 175.655 21.3767 175.39 21.0139C175.124 20.6512 174.991 20.1313 174.991 19.4542V13.9224H173.778V11.5465H174.991V8.88039H177.671V11.5465H179.663V13.9224H177.671V18.1302ZM183.963 21.2225C183.136 20.757 182.481 20.1252 181.998 19.3272C181.515 18.5292 181.274 17.6586 181.274 16.7155C181.274 15.7845 181.515 14.9199 181.998 14.1219C182.481 13.3239 183.136 12.6921 183.963 12.2266C184.789 11.7611 185.692 11.5284 186.669 11.5284C187.647 11.5284 188.553 11.7611 189.386 12.2266C190.218 12.6921 190.879 13.3239 191.368 14.1219C191.857 14.9199 192.101 15.7845 192.101 16.7155C192.101 17.6586 191.857 18.5292 191.368 19.3272C190.879 20.1252 190.218 20.757 189.386 21.2225C188.553 21.688 187.647 21.9208 186.669 21.9208C185.692 21.9208 184.789 21.688 183.963 21.2225ZM185.294 14.2761C184.871 14.524 184.539 14.8625 184.298 15.2917C184.056 15.721 183.935 16.1956 183.935 16.7155C183.935 17.2596 184.053 17.7463 184.289 18.1755C184.524 18.6048 184.85 18.9433 185.266 19.1912C185.683 19.439 186.151 19.563 186.669 19.563C187.176 19.563 187.638 19.439 188.055 19.1912C188.471 18.9433 188.8 18.6017 189.041 18.1665C189.283 17.7312 189.403 17.2475 189.403 16.7155C189.403 16.1956 189.283 15.721 189.041 15.2917C188.8 14.8625 188.471 14.524 188.055 14.2761C187.638 14.0282 187.176 13.9043 186.669 13.9043C186.175 13.9043 185.716 14.0282 185.294 14.2761ZM199.054 14.3124C198.535 14.4393 198.058 14.7386 197.624 15.2102C197.189 15.6817 196.972 16.3709 196.972 17.2778V21.685H194.274V11.7097H196.972V13.0337C197.419 12.4412 197.965 12.0392 198.61 11.8276C199.256 11.616 199.845 11.5163 200.376 11.5284V14.1763C200.014 14.1401 199.573 14.1854 199.054 14.3124ZM203.454 25.4212L205.174 21.3222L200.901 11.746H204.033L206.55 18.0939L208.868 11.746H212L206.441 25.4212H203.454Z" fill="#111111"/>
<path d="M78.8113 30.8989C80.2179 30.8989 81.3211 31.4085 82.1214 32.4278L81.1438 33.1321C80.5493 32.3305 79.7602 31.9296 78.7771 31.9296C77.9767 31.9296 77.3278 32.1357 76.8304 32.548C76.3335 32.9603 76.0732 33.5215 76.0502 34.2315C76.0502 34.8499 76.2387 35.351 76.6161 35.7347C76.9936 36.1183 77.6509 36.4419 78.5886 36.7052C79.823 37.0717 80.6464 37.3953 81.058 37.6758C81.4697 37.9564 81.781 38.3029 81.9924 38.7152C82.2044 39.1274 82.3098 39.6428 82.3098 40.2612C82.3098 41.2461 81.9582 42.0564 81.2555 42.692C80.5521 43.3276 79.6458 43.6569 78.537 43.6798C76.7877 43.6798 75.4731 43.0671 74.5926 41.8417L75.6728 41.1202C76.2791 42.128 77.205 42.6376 78.4512 42.649C79.2628 42.649 79.9206 42.4229 80.4237 41.9705C80.9262 41.5181 81.1781 40.9484 81.1781 40.2612C81.1781 39.8604 81.1068 39.5311 80.9638 39.2735C80.8208 39.0158 80.6037 38.7925 80.3121 38.6035C80.0205 38.4146 79.6486 38.2428 79.1971 38.0881C78.7457 37.9335 78.2168 37.7531 77.6111 37.547C76.6963 37.2493 76.0188 36.8312 75.5786 36.293C75.1383 35.7547 74.9184 35.0676 74.9184 34.2315C74.9184 33.2466 75.2869 32.4449 76.0244 31.8265C76.7619 31.2081 77.6907 30.8989 78.8113 30.8989ZM95.4533 39.1103H101.027L98.2828 32.4449L95.4533 39.1103ZM98.9176 31.2081L104.028 43.3706H102.759L101.439 40.141H95.0074L93.6356 43.3706H92.4522L97.7511 31.2081H98.9176ZM116.057 31.2081V42.3398H121.716V43.3706H114.925V31.2081H116.057ZM140.073 31.2081V32.2388H133.779V36.5678H139.678V37.5985H133.779V42.3398H140.347V43.3706H132.648V31.2081H140.073Z" fill="#111111"/>
</svg>
