<svg width="378" height="89" viewBox="0 0 378 89" fill="none" xmlns="http://www.w3.org/2000/svg">
<path d="M105 80.6821H0V84.8585H105V80.6821Z" fill="#393939"/>
<path d="M26.8815 79.3018H9.56155V1.60393H26.8815V79.3018ZM11.6592 77.1942H24.7828V3.68604H11.6592V77.1942Z" fill="#393939"/>
<path d="M26.8815 19.174H9.56155V10.2611H26.8815V19.174ZM11.6592 17.0897H24.7828V12.3654H11.6592V17.0897Z" fill="#393939"/>
<path d="M26.8815 71.6906H9.56155V62.7711H26.8815V71.6906ZM11.6592 69.5886H24.7828V64.8587H11.6592V69.5886Z" fill="#393939"/>
<path d="M81.8311 79.5442L61.7206 4.48302L78.4605 0L98.5699 75.0512L81.8311 79.5442ZM64.2986 5.97404L83.3111 76.9662L95.993 73.5724L76.9806 2.57469L64.2986 5.97404Z" fill="#393939"/>
<path d="M79.5852 71.1637L77.2717 62.5475L94.0116 58.0589L96.324 66.6852L79.5852 71.1637ZM79.8486 64.033L81.0718 68.6057L93.7438 65.2085L92.5295 60.637L79.8486 64.033Z" fill="#393939"/>
<path d="M66.0055 20.4503L63.6788 11.8496L80.4309 7.34441L82.7454 15.9695L66.0055 20.4503ZM66.2689 13.3262L67.4943 17.8856L80.1652 14.4862L78.9376 9.92684L66.2689 13.3262Z" fill="#393939"/>
<path d="M64.085 79.5442L43.9734 4.48302L60.7122 0L80.8094 75.0512L64.085 79.5442ZM46.5503 5.97404L65.5616 76.9662L78.248 73.5724L59.209 2.57469L46.5503 5.97404Z" fill="#393939"/>
<path d="M61.8368 71.1637L59.5234 62.5475L76.2633 58.07L78.5757 66.6852L61.8368 71.1637ZM62.087 64.033L63.3268 68.6057L75.9943 65.2085L74.7712 60.6369L62.087 64.033Z" fill="#393939"/>
<path d="M48.2428 20.4503L45.9315 11.8496L62.6704 7.34441L64.9816 15.9695L48.2428 20.4503ZM48.5096 13.3262L49.7349 17.8856L62.4036 14.4862L61.1893 9.92684L48.5096 13.3262Z" fill="#393939"/>
<path d="M46.3234 79.5442L26.1985 4.48302L42.9384 0L63.0611 75.0512L46.3234 79.5442ZM28.7876 5.97404L47.8144 76.9662L60.4964 73.5724L41.4607 2.57469L28.7876 5.97404Z" fill="#393939"/>
<path d="M44.0874 71.1637L41.7629 62.5475L58.4995 58.0589L60.8251 66.6852L44.0874 71.1637ZM44.3376 64.033L45.5773 68.6057L58.2349 65.2085L57.0207 60.637L44.3376 64.033Z" fill="#393939"/>
<path d="M30.4967 20.4503L28.1722 11.8496L44.9231 7.34441L47.2244 15.9695L30.4967 20.4503ZM30.7469 13.3262L31.9722 17.8856L44.6553 14.4862L43.431 9.92684L30.7469 13.3262Z" fill="#393939"/>
<path d="M147.641 16.1299C149.072 16.8832 150.175 17.9001 150.95 19.1807C151.724 20.4613 152.112 21.8872 152.112 23.4583C152.112 25.0294 151.751 26.4391 151.03 27.6874C150.309 28.9357 149.228 29.9204 147.786 30.6414C146.344 31.3624 144.601 31.7229 142.556 31.7229H138.101V38.5993H133V15H142.588C144.525 15 146.209 15.3766 147.641 16.1299V16.1299ZM146.043 26.1701C146.667 25.4168 146.979 24.5129 146.979 23.4583C146.979 22.7696 146.817 22.1185 146.495 21.5051C146.172 20.8918 145.693 20.3914 145.058 20.004C144.423 19.6165 143.664 19.4228 142.782 19.4228H138.101V27.3H143.298C144.504 27.3 145.418 26.9234 146.043 26.1701V26.1701ZM168.318 36.8237C167.909 37.3833 167.204 37.8837 166.204 38.3249C165.203 38.7661 164.111 38.9867 162.927 38.9867C161.097 38.9867 159.51 38.5778 158.165 37.7599C156.82 36.9421 155.792 35.8283 155.082 34.4186C154.372 33.0089 154.017 31.4431 154.017 29.7213C154.017 27.9995 154.372 26.4338 155.082 25.024C155.792 23.6143 156.82 22.5005 158.165 21.6827C159.51 20.8648 161.097 20.4559 162.927 20.4559C164.154 20.4559 165.235 20.6658 166.171 21.0855C167.108 21.5051 167.823 22.0378 168.318 22.6835V20.8433H173.096V38.5993H168.318V36.8237V36.8237ZM167.188 26.0894C166.306 25.1532 165.122 24.6851 163.637 24.6851C162.131 24.6851 160.941 25.1532 160.07 26.0894C159.198 27.0256 158.762 28.2363 158.762 29.7213C158.762 31.1633 159.209 32.3578 160.102 33.3048C160.995 34.2518 162.174 34.7253 163.637 34.7253C165.144 34.7253 166.333 34.2787 167.204 33.3855C168.076 32.4923 168.512 31.2709 168.512 29.7213C168.512 28.2363 168.071 27.0256 167.188 26.0894ZM182.652 22.6189C183.061 22.0593 183.766 21.5589 184.767 21.1177C185.767 20.6765 186.86 20.4559 188.043 20.4559C189.873 20.4559 191.46 20.8648 192.805 21.6827C194.15 22.5005 195.178 23.6143 195.888 25.024C196.599 26.4338 196.954 27.9995 196.954 29.7213C196.954 31.4431 196.599 33.0089 195.888 34.4186C195.178 35.8283 194.15 36.9421 192.805 37.7599C191.46 38.5778 189.873 38.9867 188.043 38.9867C186.817 38.9867 185.735 38.7768 184.799 38.3572C183.863 37.9375 183.147 37.4048 182.652 36.7591V44.3135H177.874V20.8433H182.652V22.6189V22.6189ZM183.782 33.3532C184.664 34.2894 185.848 34.7575 187.333 34.7575C188.84 34.7575 190.029 34.2894 190.901 33.3532C191.772 32.417 192.208 31.2064 192.208 29.7213C192.208 28.2793 191.761 27.0848 190.868 26.1378C189.975 25.1908 188.797 24.7174 187.333 24.7174C185.827 24.7174 184.638 25.1639 183.766 26.0571C182.894 26.9503 182.458 28.1717 182.458 29.7213C182.458 31.2064 182.9 32.417 183.782 33.3532V33.3532ZM205.428 38.1796C203.954 37.5985 202.689 36.6138 201.635 35.2257C200.58 33.8375 200.053 32.0242 200.053 29.7859C200.053 27.5475 200.586 25.7397 201.651 24.3622C202.716 22.9848 203.992 22.0055 205.477 21.4244C206.962 20.8433 208.371 20.5528 209.706 20.5528C211.255 20.5528 212.73 20.8971 214.129 21.5858C215.528 22.2746 216.674 23.2861 217.567 24.6205C218.46 25.9549 218.928 27.5368 218.971 29.3662C218.971 29.9258 218.96 30.41 218.939 30.8189C218.917 31.2279 218.896 31.4861 218.874 31.5938H204.863C205.121 32.8421 205.767 33.6922 206.8 34.1442C207.833 34.5961 208.802 34.8221 209.706 34.8221C210.868 34.8221 211.793 34.6123 212.482 34.1926C213.171 33.7729 213.763 33.294 214.258 32.756L218.003 34.919C215.98 37.6738 213.214 39.0513 209.706 39.0513C208.328 39.0513 206.902 38.7607 205.428 38.1796V38.1796ZM206.413 25.7666C205.573 26.423 205.1 27.2247 204.992 28.1717H213.87C213.806 27.6121 213.591 27.0741 213.225 26.5575C212.859 26.041 212.369 25.6159 211.756 25.2823C211.142 24.9487 210.448 24.7819 209.673 24.7819C208.339 24.7819 207.252 25.1101 206.413 25.7666V25.7666ZM231.336 25.476C230.41 25.702 229.56 26.2347 228.785 27.0741C228.011 27.9134 227.623 29.1402 227.623 30.7544V38.5993H222.813V20.8433H227.623V23.2C228.419 22.1454 229.393 21.4298 230.545 21.0532C231.696 20.6765 232.745 20.499 233.692 20.5205V25.2339C233.047 25.1693 232.261 25.25 231.336 25.476V25.476ZM251.642 24.6205H262.909V29.0434H251.642V38.5993H246.509V15H264.394V19.4228H251.642V24.6205V24.6205ZM280.278 36.8237C279.869 37.3833 279.164 37.8837 278.163 38.3249C277.162 38.7661 276.07 38.9867 274.886 38.9867C273.057 38.9867 271.47 38.5778 270.124 37.7599C268.779 36.9421 267.752 35.8283 267.041 34.4186C266.331 33.0089 265.976 31.4431 265.976 29.7213C265.976 27.9995 266.331 26.4338 267.041 25.024C267.752 23.6143 268.779 22.5005 270.124 21.6827C271.47 20.8648 273.057 20.4559 274.886 20.4559C276.113 20.4559 277.195 20.6658 278.131 21.0855C279.067 21.5051 279.783 22.0378 280.278 22.6835V20.8433H285.056V38.5993H280.278V36.8237V36.8237ZM279.148 26.0894C278.265 25.1532 277.082 24.6851 275.597 24.6851C274.09 24.6851 272.901 25.1532 272.029 26.0894C271.158 27.0256 270.722 28.2363 270.722 29.7213C270.722 31.1633 271.168 32.3578 272.061 33.3048C272.955 34.2518 274.133 34.7253 275.597 34.7253C277.103 34.7253 278.292 34.2787 279.164 33.3855C280.036 32.4923 280.471 31.2709 280.471 29.7213C280.471 28.2363 280.03 27.0256 279.148 26.0894ZM293.837 37.8083C292.352 36.9797 291.173 35.8552 290.302 34.4347C289.43 33.0142 288.994 31.4646 288.994 29.7859C288.994 28.1071 289.43 26.5629 290.302 25.1532C291.173 23.7435 292.346 22.6243 293.821 21.7957C295.295 20.9671 296.904 20.5528 298.647 20.5528C300.519 20.5528 302.214 20.9994 303.732 21.8925C305.249 22.7857 306.46 24.0609 307.364 25.7181L303.005 27.4292C302.489 26.5468 301.854 25.8849 301.101 25.4437C300.347 25.0025 299.529 24.7819 298.647 24.7819C297.248 24.7819 296.091 25.2554 295.176 26.2024C294.262 27.1494 293.804 28.3439 293.804 29.7859C293.804 31.2279 294.267 32.4224 295.193 33.3694C296.118 34.3163 297.28 34.7898 298.679 34.7898C300.616 34.7898 302.112 33.9289 303.167 32.2071L307.267 33.8213C305.566 37.3079 302.704 39.0513 298.679 39.0513C296.936 39.0513 295.322 38.637 293.837 37.8083V37.8083ZM316.79 32.2717C316.79 33.025 316.919 33.6545 317.178 34.1603C317.436 34.6661 318.039 34.919 318.986 34.919C319.416 34.919 319.825 34.8974 320.212 34.8544V38.9221C319.438 39.0082 318.717 39.0513 318.049 39.0513C316.672 39.0513 315.558 38.9383 314.708 38.7123C313.858 38.4863 313.196 38.0505 312.723 37.4048C312.249 36.7591 312.012 35.8337 312.012 34.6284V24.7819H309.849V20.5528H312.012V15.8071H316.79V20.5528H320.342V24.7819H316.79V32.2717V32.2717ZM328.009 37.7761C326.535 36.9474 325.367 35.8229 324.506 34.4024C323.645 32.9819 323.215 31.4323 323.215 29.7536C323.215 28.0964 323.645 26.5575 324.506 25.137C325.367 23.7166 326.535 22.592 328.009 21.7634C329.483 20.9348 331.092 20.5205 332.835 20.5205C334.579 20.5205 336.193 20.9348 337.678 21.7634C339.163 22.592 340.341 23.7166 341.213 25.137C342.085 26.5575 342.52 28.0964 342.52 29.7536C342.52 31.4323 342.085 32.9819 341.213 34.4024C340.341 35.8229 339.163 36.9474 337.678 37.7761C336.193 38.6047 334.579 39.019 332.835 39.019C331.092 39.019 329.483 38.6047 328.009 37.7761V37.7761ZM330.382 25.4115C329.628 25.8527 329.037 26.4553 328.606 27.2193C328.176 27.9834 327.96 28.8281 327.96 29.7536C327.96 30.7221 328.17 31.5884 328.59 32.3524C329.01 33.1165 329.591 33.7191 330.333 34.1603C331.076 34.6015 331.91 34.8221 332.835 34.8221C333.739 34.8221 334.562 34.6015 335.305 34.1603C336.047 33.7191 336.634 33.1111 337.064 32.3363C337.495 31.5615 337.71 30.7006 337.71 29.7536C337.71 28.8281 337.495 27.9834 337.064 27.2193C336.634 26.4553 336.047 25.8527 335.305 25.4115C334.562 24.9702 333.739 24.7496 332.835 24.7496C331.953 24.7496 331.135 24.9702 330.382 25.4115V25.4115ZM354.917 25.476C353.992 25.702 353.142 26.2347 352.367 27.0741C351.592 27.9134 351.205 29.1402 351.205 30.7544V38.5993H346.394V20.8433H351.205V23.2C352.001 22.1454 352.975 21.4298 354.126 21.0532C355.278 20.6765 356.327 20.499 357.274 20.5205V25.2339C356.628 25.1693 355.843 25.25 354.917 25.476V25.476ZM362.762 45.2497L365.829 37.9536L358.21 20.9079H363.795L368.283 32.2071L372.415 20.9079H378L368.089 45.2497H362.762V45.2497Z" fill="#111111"/>
<path d="M140.522 55C143.03 55 144.997 55.9071 146.424 57.7214L144.681 58.9751C143.621 57.5482 142.214 56.8347 140.461 56.8347C139.034 56.8347 137.877 57.2016 136.99 57.9355C136.104 58.6694 135.64 59.6682 135.599 60.9321C135.599 62.0329 135.935 62.9248 136.608 63.6077C137.281 64.2906 138.453 64.8665 140.125 65.3353C142.326 65.9877 143.794 66.5636 144.528 67.063C145.262 67.5624 145.817 68.1791 146.194 68.913C146.572 69.6468 146.76 70.5642 146.76 71.665C146.76 73.4181 146.133 74.8604 144.88 75.9918C143.626 77.1232 142.01 77.7092 140.033 77.75C136.914 77.75 134.57 76.6594 133 74.4782L134.926 73.1939C136.007 74.9878 137.658 75.8949 139.88 75.9153C141.327 75.9153 142.5 75.5127 143.397 74.7075C144.293 73.9023 144.742 72.8881 144.742 71.665C144.742 70.9515 144.615 70.3654 144.36 69.9068C144.105 69.4481 143.718 69.0506 143.198 68.7142C142.678 68.3779 142.015 68.0721 141.21 67.7969C140.405 67.5217 139.462 67.2006 138.382 66.8337C136.751 66.3037 135.543 65.5596 134.758 64.6015C133.973 63.6434 133.581 62.4203 133.581 60.9321C133.581 59.179 134.238 57.752 135.553 56.6512C136.868 55.5504 138.524 55 140.522 55V55ZM170.195 69.6163H180.133L175.24 57.752L170.195 69.6163ZM176.372 55.5504L185.484 77.1996H183.221L180.867 71.4509H169.4L166.954 77.1996H164.844L174.292 55.5504H176.372ZM206.931 55.5504V75.3649H217.022V77.1996H204.913V55.5504H206.931ZM249.753 55.5504V57.3851H238.531V65.0907H249.049V66.9254H238.531V75.3649H250.242V77.1996H236.513V55.5504H249.753V55.5504Z" fill="#111111"/>
</svg>
